<svg width="211" height="68" viewBox="0 0 211 68" fill="none" xmlns="http://www.w3.org/2000/svg">
<path d="M20.5745 34.6485L9.34014 46.1362V62.2561H0.5V0H9.34014V34.8338L42.859 0H52.9883L26.6521 27.9782L54.83 62.2561H44.5165L20.5745 34.6485Z" fill="#FF6060"/>
<path d="M119.289 57.2525L122.788 50.5822C126.84 53.3615 133.102 55.3997 139.179 55.3997C147.099 55.3997 150.23 52.9909 150.23 48.9146C150.23 38.3533 120.578 47.4324 120.578 28.7185C120.578 20.1953 128.129 14.6367 140.1 14.6367C146.178 14.6367 153.176 16.3043 157.228 18.8983L153.545 25.5686C149.309 22.7893 144.704 21.8629 140.1 21.8629C132.733 21.8629 129.05 24.6422 129.05 28.3479C129.05 39.4651 158.701 30.386 158.701 48.7294C158.701 57.2525 150.966 62.6258 138.443 62.6258C130.892 62.8111 123.157 60.4024 119.289 57.2525Z" fill="#FF6060"/>
<path d="M210.822 33.7229V62.2569H202.718V55.9572C199.956 60.2188 194.615 62.6275 187.248 62.6275C176.566 62.6275 169.936 56.8836 169.936 48.7311C169.936 41.1343 174.724 35.0199 188.721 35.0199H202.166V33.3523C202.166 26.1261 197.93 22.0499 189.642 22.0499C184.117 22.0499 178.408 24.088 174.724 27.0526L171.225 20.5676C176.014 16.6766 183.012 14.4531 190.563 14.4531C203.639 14.6384 210.822 20.9381 210.822 33.7229ZM202.35 47.8046V41.1343H189.274C180.802 41.1343 178.408 44.4695 178.408 48.3605C178.408 52.9926 182.275 55.9572 188.721 55.9572C195.167 56.1425 200.324 53.3632 202.35 47.8046Z" fill="#FF6060"/>
<path d="M92.0322 49.8413V62.4407L97.3731 59.2909V46.6914L92.0322 49.8413Z" fill="#FF6060"/>
<path d="M106.766 34.4623L84.8498 21.6776L72.6946 14.6367L60.7236 35.574L60.9078 55.2144L82.6398 67.9991L84.8498 66.7021V48.1735L94.6108 30.9419L104.556 36.6858V55.2144L106.766 53.9174V34.4623Z" fill="#FF6060"/>
</svg>
